<svg width="30" height="30" viewBox="0 0 30 30" fill="none" xmlns="http://www.w3.org/2000/svg">
  <path 
    d="M7.71201 1.50975C8.96083 0.537269 10.5939 0 12.2164 0C13.1876 0 13.9726 0.333167 14.5685 0.862932C14.7286 1.007 14.8722 1.15908 14.9993 1.31916C15.1263 1.15908 15.2699 1.007 15.43 0.862932C16.0259 0.333167 16.8109 0 17.7821 0C19.4046 0 21.0392 0.537269 22.285 1.50975C23.2576 2.26463 24.0186 3.30765 24.3173 4.56678C24.9477 4.67184 25.5076 4.993 25.9609 5.41771C26.6813 6.09455 27.1962 7.07304 27.5189 8.08004C27.8476 9.10205 28.0112 10.2501 27.9617 11.3532C27.9362 11.9175 27.8536 12.4937 27.696 13.0445L27.7936 13.0895C28.3489 13.3507 28.7992 13.7604 29.1369 14.3052C29.7749 15.3332 30 16.8129 30 18.6993C30 20.8679 29.17 22.3402 28.1043 23.2541C27.5491 23.73 26.8994 24.0829 26.198 24.2896C25.9421 25.4619 25.4192 26.5594 24.67 27.4967C23.5848 28.8534 21.8977 30 19.6313 30C17.8151 30 16.3847 28.9945 15.4661 28.034C15.3026 27.8629 15.1473 27.6841 15.0008 27.4982C14.8537 27.6836 14.6979 27.8619 14.5339 28.0325C13.6154 28.996 12.1849 30 10.3687 30C8.10077 30 6.41367 28.8534 5.32996 27.4967C4.57974 26.5597 4.05583 25.4622 3.79897 24.2896C3.09809 24.0827 2.44895 23.7298 1.89423 23.2541C0.828539 22.3387 0 20.8679 0 18.6993C0 16.8129 0.225147 15.3332 0.86156 14.3052C1.19952 13.7457 1.70307 13.3052 2.3025 13.0445C2.14969 12.4927 2.06055 11.9252 2.03682 11.3532C1.98729 10.2501 2.1509 9.10205 2.47961 8.08004C2.80232 7.07454 3.31566 6.09455 4.03762 5.41771C4.48797 4.97601 5.06052 4.67959 5.68119 4.56678C5.98139 3.30615 6.74088 2.26463 7.71201 1.50975ZM9.09591 3.28514C8.27638 3.92296 7.79607 4.77239 7.79607 5.75088C7.79593 5.92913 7.75346 6.1048 7.67214 6.26343C7.59082 6.42206 7.47298 6.55911 7.32833 6.6633C7.18367 6.76748 7.01634 6.83583 6.8401 6.86271C6.66385 6.88959 6.48375 6.87424 6.31461 6.81791C6.10897 6.74887 5.89133 6.76538 5.57913 7.05953C5.2309 7.38519 4.87817 7.97499 4.62301 8.76738C4.36646 9.56977 4.25266 10.4109 4.28679 11.2526C4.32431 12.087 4.52244 12.7804 4.83464 13.2486C4.8857 13.3266 4.9275 13.4102 4.95922 13.4977H6.58328C7.66393 13.4975 8.70462 13.9062 9.49623 14.6418C10.2878 15.3773 10.7717 16.3851 10.8506 17.4627C11.4971 17.7207 12.034 18.1953 12.3691 18.8054C12.7043 19.4155 12.817 20.1231 12.6879 20.8071C12.5588 21.4911 12.196 22.1089 11.6615 22.5549C11.127 23.0009 10.4541 23.2473 9.75794 23.2519C9.06179 23.2566 8.38567 23.0191 7.84531 22.5802C7.30495 22.1414 6.93394 21.5284 6.79578 20.8462C6.65762 20.1639 6.7609 19.4549 7.08795 18.8405C7.41499 18.226 7.94547 17.7443 8.58858 17.4777C8.51729 16.997 8.27554 16.5579 7.90742 16.2405C7.53931 15.9231 7.06935 15.7487 6.58328 15.7489H2.64322C2.41807 16.2711 2.25146 17.1731 2.25146 18.6993C2.25146 20.2316 2.80833 21.072 3.36068 21.5463C3.96558 22.064 4.63051 22.1991 4.82264 22.1991C5.1212 22.1991 5.40753 22.3177 5.61865 22.5288C5.82976 22.7399 5.94837 23.0261 5.94837 23.3247C5.94837 23.955 6.29659 25.1001 7.08911 26.0905C7.8516 27.0465 8.93831 27.7489 10.3687 27.7489C11.3249 27.7489 12.2044 27.2116 12.9054 26.4792C13.2446 26.1221 13.5088 25.7514 13.6829 25.4512C13.748 25.3385 13.8056 25.2217 13.8555 25.1016L13.8645 25.0805V10.8714H12.5196C12.2584 11.5172 11.7807 12.0519 11.1683 12.3841C10.556 12.7163 9.84716 12.8252 9.16333 12.6921C8.4795 12.5591 7.86324 12.1923 7.42017 11.6548C6.9771 11.1173 6.7348 10.4424 6.7348 9.74587C6.7348 9.04932 6.9771 8.37445 7.42017 7.83693C7.86324 7.29941 8.4795 6.93269 9.16333 6.79964C9.84716 6.66659 10.556 6.77548 11.1683 7.10765C11.7807 7.43982 12.2584 7.97459 12.5196 8.62031H13.8645V4.81141L13.86 4.72586C13.8337 4.26373 13.7428 3.80757 13.5898 3.37069C13.4547 3.01051 13.2791 2.72986 13.072 2.54527C12.8874 2.38019 12.6322 2.25113 12.2164 2.25113C11.0667 2.25113 9.92745 2.63832 9.09441 3.28664M16.1355 22.5023V25.0805L16.143 25.1016C16.173 25.1816 16.2311 25.2981 16.3171 25.4512C16.4897 25.7514 16.7539 26.1221 17.0946 26.4792C17.7941 27.2116 18.6751 27.7489 19.6313 27.7489C21.0602 27.7489 22.1469 27.0465 22.9109 26.0905C23.7019 25.1001 24.0516 23.9535 24.0516 23.3247C24.0516 23.0261 24.1702 22.7399 24.3814 22.5288C24.5925 22.3177 24.8788 22.1991 25.1774 22.1991C25.3695 22.1991 26.0329 22.064 26.6393 21.5463C27.1902 21.072 27.747 20.2316 27.747 18.6993C27.747 16.8864 27.5099 15.953 27.2232 15.4922C27.1335 15.3329 26.9974 15.2047 26.8329 15.1246C26.6813 15.0525 26.4532 14.9985 26.1005 14.9985C25.8967 14.9985 25.6968 14.9432 25.522 14.8385C25.3472 14.7338 25.2041 14.5836 25.108 14.404C25.0119 14.2244 24.9663 14.0221 24.9761 13.8186C24.986 13.6151 25.0508 13.4181 25.1639 13.2486C25.4761 12.7804 25.6742 12.087 25.7132 11.2526C25.7469 10.4108 25.6325 9.56968 25.3755 8.76738C25.1203 7.97499 24.7676 7.38669 24.4209 7.05953C24.1072 6.76538 23.8895 6.74887 23.6854 6.81791C23.5162 6.87453 23.3359 6.89011 23.1595 6.86337C22.983 6.83663 22.8155 6.76833 22.6706 6.66411C22.5258 6.55989 22.4078 6.42273 22.3264 6.26395C22.245 6.10516 22.2025 5.9293 22.2024 5.75088C22.2024 4.77239 21.7221 3.92296 20.9026 3.28514C20.0725 2.63832 18.9318 2.24962 17.7806 2.24962C17.3663 2.24962 17.1126 2.38019 16.9265 2.54377C16.6921 2.77469 16.5153 3.05742 16.4102 3.36918C16.2403 3.83166 16.1475 4.31888 16.1355 4.81141V20.2511H17.0901C17.6275 20.2511 18.1429 20.0377 18.5229 19.6577C18.9029 19.2778 19.1164 18.7624 19.1164 18.2251V15.5313C18.4706 15.2701 17.9358 14.7924 17.6035 14.1802C17.2713 13.5679 17.1624 12.8592 17.2955 12.1755C17.4286 11.4917 17.7953 10.8756 18.3329 10.4326C18.8705 9.98956 19.5455 9.7473 20.2422 9.7473C20.9388 9.7473 21.6138 9.98956 22.1514 10.4326C22.689 10.8756 23.0558 11.4917 23.1888 12.1755C23.3219 12.8592 23.213 13.5679 22.8808 14.1802C22.5486 14.7924 22.0137 15.2701 21.3679 15.5313V18.2251C21.3679 19.3595 20.9172 20.4474 20.115 21.2495C19.3127 22.0516 18.2246 22.5023 17.0901 22.5023H16.1355ZM9.73533 8.9955C9.53629 8.9955 9.3454 9.07455 9.20465 9.21528C9.06391 9.356 8.98484 9.54686 8.98484 9.74587C8.98484 9.94489 9.06391 10.1357 9.20465 10.2765C9.3454 10.4172 9.53629 10.4962 9.73533 10.4962C9.93437 10.4962 10.1253 10.4172 10.266 10.2765C10.4067 10.1357 10.4858 9.94489 10.4858 9.74587C10.4858 9.54686 10.4067 9.356 10.266 9.21528C10.1253 9.07455 9.93437 8.9955 9.73533 8.9955ZM8.98484 20.2511C8.98484 20.4501 9.06391 20.641 9.20465 20.7817C9.3454 20.9224 9.53629 21.0015 9.73533 21.0015C9.93437 21.0015 10.1253 20.9224 10.266 20.7817C10.4067 20.641 10.4858 20.4501 10.4858 20.2511C10.4858 20.0521 10.4067 19.8613 10.266 19.7205C10.1253 19.5798 9.93437 19.5008 9.73533 19.5008C9.53629 19.5008 9.3454 19.5798 9.20465 19.7205C9.06391 19.8613 8.98484 20.0521 8.98484 20.2511ZM19.4917 12.7474C19.4917 12.9464 19.5707 13.1372 19.7115 13.278C19.8522 13.4187 20.0431 13.4977 20.2422 13.4977C20.4412 13.4977 20.6321 13.4187 20.7728 13.278C20.9136 13.1372 20.9926 12.9464 20.9926 12.7474C20.9926 12.5484 20.9136 12.3575 20.7728 12.2168C20.6321 12.0761 20.4412 11.997 20.2422 11.997C20.0431 11.997 19.8522 12.0761 19.7115 12.2168C19.5707 12.3575 19.4917 12.5484 19.4917 12.7474Z" 
    fill="black"
  />
</svg>